<svg xmlns="http://www.w3.org/2000/svg" width="180" height="80" viewBox="0 0 180 80"><rect width="100%" height="100%" fill="#DDDDDD"/><path fill="#999999" d="M34.95 42.545h4.34v1.67h-6.35v-10.84h2.01v9.17Zm8.89-6.14q.86 0 1.56.27.7.28 1.2.79t.77 1.25q.27.73.27 1.64 0 .91-.27 1.65-.27.73-.77 1.25t-1.2.8q-.7.27-1.56.27-.86 0-1.57-.27-.7-.28-1.2-.8t-.77-1.25q-.28-.74-.28-1.65 0-.91.28-1.64.27-.74.77-1.25t1.2-.79q.71-.27 1.57-.27Zm0 6.5q.96 0 1.42-.65.46-.64.46-1.89 0-1.24-.46-1.9-.46-.65-1.42-.65-.97 0-1.44.66t-.47 1.89q0 1.24.47 1.89.47.65 1.44.65Zm8.03-2.73q.34 0 .6-.09.25-.09.42-.26.17-.16.26-.4.08-.23.08-.5 0-.58-.34-.91-.34-.33-1.02-.33-.69 0-1.03.33-.34.33-.34.91 0 .27.09.5.08.23.25.4.17.17.43.26t.6.09Zm2.09 4.38q0-.22-.14-.36-.13-.14-.36-.22-.24-.08-.55-.12-.31-.04-.66-.06-.35-.01-.72-.03-.37-.01-.72-.06-.31.17-.5.41-.19.23-.19.53 0 .21.1.38.1.18.32.31.22.12.58.2.35.07.86.07.52 0 .89-.08.38-.08.62-.22t.36-.33q.11-.19.11-.42Zm-.37-7.77h2.21v.69q0 .33-.39.4l-.69.13q.15.4.15.87 0 .57-.22 1.03-.23.46-.64.79-.4.32-.95.49-.56.18-1.19.18-.23 0-.44-.02l-.41-.06q-.36.22-.36.49 0 .23.21.34.22.11.57.15.35.04.8.06.45.01.92.05.48.03.93.13.45.09.8.29.35.21.57.55.21.35.21.9 0 .51-.25.99t-.73.86q-.48.37-1.17.6-.69.23-1.58.23-.87 0-1.51-.17-.65-.17-1.08-.45-.42-.28-.63-.65-.21-.37-.21-.77 0-.53.32-.9.33-.36.9-.58-.31-.16-.49-.42t-.18-.69q0-.17.07-.36.06-.18.18-.36.13-.18.31-.34.19-.16.45-.29-.59-.31-.92-.84-.34-.52-.34-1.23 0-.57.23-1.03.23-.46.64-.79.41-.32.97-.5.56-.17 1.22-.17.49 0 .93.1.43.1.79.3Zm6.79-.38q.85 0 1.56.27.7.28 1.2.79.49.51.76 1.25.27.73.27 1.64 0 .91-.27 1.65-.27.73-.76 1.25-.5.52-1.2.8-.71.27-1.56.27-.86 0-1.57-.27-.7-.28-1.2-.8t-.77-1.25q-.28-.74-.28-1.65 0-.91.28-1.64.27-.74.77-1.25t1.2-.79q.71-.27 1.57-.27Zm0 6.5q.96 0 1.42-.65.46-.64.46-1.89 0-1.24-.46-1.9-.46-.65-1.42-.65-.98 0-1.44.66-.47.66-.47 1.89 0 1.24.47 1.89.46.65 1.44.65Zm11.17-4.08h1.5q.56 0 .97-.14.41-.14.69-.4.27-.26.41-.63.13-.37.13-.83 0-.43-.13-.78-.14-.36-.41-.61-.27-.24-.68-.37-.41-.14-.98-.14h-1.5v3.9Zm-2.02-5.45h3.52q1.09 0 1.89.25.79.26 1.31.71.52.46.77 1.1.25.64.25 1.39 0 .79-.26 1.45-.27.65-.79 1.13-.53.47-1.32.73t-1.85.26h-1.5v3.82h-2.02v-10.84Zm9.01-.3h1.86v11.14h-1.86v-11.14Zm7.77 9.15v-1.29q-.8.03-1.35.13-.54.11-.87.26-.33.16-.48.37-.14.21-.14.46 0 .49.29.7.29.2.75.2.57 0 .99-.2.42-.21.81-.63Zm-3.91-4.04-.33-.59q1.33-1.22 3.19-1.22.68 0 1.21.22.53.23.9.62t.56.94q.19.55.19 1.2v4.86h-.84q-.26 0-.4-.08-.15-.08-.23-.32l-.16-.55q-.3.26-.57.46-.28.2-.58.33-.3.14-.64.21-.34.07-.76.07-.48 0-.9-.13-.41-.13-.71-.39-.3-.27-.46-.66-.17-.39-.17-.9 0-.3.1-.59.1-.28.32-.55.22-.26.57-.49.35-.23.87-.41.51-.17 1.19-.28.69-.11 1.56-.13v-.45q0-.77-.33-1.14-.33-.38-.95-.38-.45 0-.74.11-.3.1-.53.24-.22.13-.4.23-.19.11-.41.11-.2 0-.33-.1-.14-.1-.22-.24Zm13.46-.71-.49.67q-.08.11-.16.17-.08.06-.23.06-.14 0-.27-.09l-.33-.19q-.18-.11-.44-.2-.26-.08-.64-.08-.49 0-.86.17-.37.18-.61.51t-.36.8q-.12.46-.12 1.06 0 .61.13 1.09.13.48.38.81.24.32.6.49.35.17.79.17.44 0 .72-.11.27-.1.46-.24.19-.13.33-.24.13-.1.31-.1.22 0 .33.17l.54.67q-.31.36-.67.61-.36.24-.75.39-.38.14-.79.2-.41.06-.82.06-.71 0-1.34-.26-.63-.27-1.1-.78-.47-.51-.75-1.25-.27-.74-.27-1.68 0-.85.24-1.57.25-.73.72-1.26.47-.52 1.17-.82.7-.3 1.6-.3.87 0 1.52.27.64.28 1.16.8Zm2.69 2.01h3.5q0-.36-.1-.68-.1-.32-.31-.56-.2-.24-.51-.38t-.72-.14q-.81 0-1.27.46-.46.46-.59 1.3Zm4.73 1.12h-4.76q.04.59.21 1.02.16.43.43.71.27.28.64.42.37.14.82.14.45 0 .78-.11.33-.1.57-.23.24-.12.43-.23.18-.1.35-.1.24 0 .35.17l.53.67q-.31.36-.69.61-.38.24-.8.39-.41.14-.84.2-.44.06-.84.06-.8 0-1.49-.26-.69-.27-1.2-.79t-.81-1.29q-.29-.77-.29-1.78 0-.79.26-1.48.25-.7.73-1.21.47-.51 1.16-.81.69-.3 1.55-.3.73 0 1.34.23.62.23 1.06.68.44.44.69 1.09.25.65.25 1.48 0 .42-.09.57-.09.15-.34.15Zm3.67-7.53v4.27q.45-.42.99-.68.54-.26 1.27-.26.63 0 1.12.21.49.21.81.6.33.39.5.92.17.54.17 1.18v4.9h-1.86v-4.9q0-.7-.32-1.09-.32-.39-.98-.39-.48 0-.9.22-.42.22-.8.6v5.56h-1.85v-11.14h1.85Zm10.02 3.33q.85 0 1.55.27.7.28 1.2.79t.77 1.25q.27.73.27 1.64 0 .91-.27 1.65-.27.73-.77 1.25t-1.2.8q-.7.27-1.55.27-.87 0-1.57-.27-.71-.28-1.2-.8-.5-.52-.78-1.25-.27-.74-.27-1.65 0-.91.27-1.64.28-.74.78-1.25.49-.51 1.2-.79.7-.27 1.57-.27Zm0 6.5q.96 0 1.42-.65.46-.64.46-1.89 0-1.24-.46-1.9-.46-.65-1.42-.65-.98 0-1.45.66t-.47 1.89q0 1.24.47 1.89.47.65 1.45.65Zm5.23-9.83h1.85v11.14h-1.85v-11.14Zm8.54 8.86v-3.45q-.32-.38-.69-.54-.37-.16-.8-.16-.42 0-.76.16-.33.16-.57.48-.24.32-.37.81-.13.49-.13 1.16 0 .67.11 1.14.11.47.31.76.2.3.5.43.29.13.65.13.58 0 .98-.24.41-.24.77-.68Zm0-8.86h1.85v11.14h-1.13q-.37 0-.47-.34l-.16-.74q-.46.53-1.06.86-.61.33-1.41.33-.63 0-1.16-.26-.52-.26-.9-.76t-.58-1.24q-.21-.73-.21-1.67 0-.86.23-1.6.23-.73.67-1.27.43-.54 1.04-.84.61-.31 1.37-.31.64 0 1.1.21.46.2.82.54v-4.05Zm5.14 6.41h3.5q0-.36-.1-.68-.11-.32-.31-.56-.2-.24-.51-.38t-.73-.14q-.8 0-1.26.46-.46.46-.59 1.3Zm4.73 1.12h-4.77q.05.59.21 1.02.17.43.44.71.27.28.64.42.37.14.82.14.45 0 .78-.11.32-.1.57-.23.24-.12.43-.23.18-.1.35-.1.23 0 .35.17l.53.67q-.31.36-.69.61-.38.24-.8.39-.42.14-.85.2t-.83.06q-.81 0-1.5-.26-.69-.27-1.2-.79t-.8-1.29q-.29-.77-.29-1.78 0-.79.25-1.48.26-.7.74-1.21.47-.51 1.16-.81.68-.3 1.55-.3.72 0 1.34.23.61.23 1.06.68.44.44.69 1.09.25.65.25 1.48 0 .42-.09.57-.09.15-.34.15Zm3.45-3.62.12.87q.36-.69.85-1.08.5-.4 1.17-.4.53 0 .86.24l-.12 1.38q-.04.14-.11.19-.07.06-.19.06t-.34-.04q-.22-.03-.43-.03-.31 0-.55.08-.24.09-.43.26t-.33.41q-.15.24-.28.55v4.74h-1.85v-7.69h1.09q.28 0 .39.1.12.1.15.36Z"/></svg>